<?xml version="1.0" standalone="no"?><svg xmlns="http://www.w3.org/2000/svg" viewBox="0 0 1440 320"><path fill="#163e6c" fill-opacity="1" d="M0,64L34.3,69.3C68.6,75,137,85,206,80C274.3,75,343,53,411,58.7C480,64,549,96,617,101.3C685.7,107,754,85,823,106.7C891.4,128,960,192,1029,197.3C1097.1,203,1166,149,1234,154.7C1302.9,160,1371,224,1406,256L1440,288L1440,320L1405.7,320C1371.4,320,1303,320,1234,320C1165.7,320,1097,320,1029,320C960,320,891,320,823,320C754.3,320,686,320,617,320C548.6,320,480,320,411,320C342.9,320,274,320,206,320C137.1,320,69,320,34,320L0,320Z"></path></svg>